<svg id="Layer_1" data-name="Layer 1" xmlns="http://www.w3.org/2000/svg" viewBox="0 0 393.11 244.94"><defs><style>.cls-1{fill:#64748b;}.cls-2{fill:#fff;}</style></defs><rect class="cls-1" x="2.82" y="179.12" width="387.69" height="62.12"/><path class="cls-1" d="M107,107.9a37.68,37.68,0,0,1-2.67,16.95,38.42,38.42,0,0,1-8,12.29q-4.82,4.83-13.5,8.35a133.25,133.25,0,0,1-15.48,5.33,113.84,113.84,0,0,1-18.06,2.84Q38,154.68,32,155t-16.69.43c-1.83,0-3.21,0-4.13.08s-2,.09-3.35.09a33.66,33.66,0,0,0-3.53.17q2.58-3.61,3.27-39T7.48,46.33Q6.7,11.41,5.67,6.08q10.14.18,17.72.52T43.51,7.89a118.14,118.14,0,0,1,21,3.18q8.43,2.23,18.06,5.67t14,9a34.67,34.67,0,0,1,6.28,12.9q1.89,7.32-2.75,17.89T85,79.87A20,20,0,0,1,87.2,81a64.41,64.41,0,0,1,11.44,9.28,36.71,36.71,0,0,1,5.41,7.83A24.16,24.16,0,0,1,107,107.9ZM23,26.2V75.05q34.39,5.51,51.26-7.74,11-8.78,9.11-21Q81.7,34.47,68.79,27.75,50.91,18.65,23,26.2ZM85,126.65q18.41-20-1.37-30.79-14.46-7.74-39.22-7.74-15.66,0-20.64,3.1v46.44q13.41,6,32.77,2.58T85,126.65Z"/><path class="cls-1" d="M227.89,37.73q-5.67-10.32-30.18-14.36t-44.9,3.95q-20.37,8-15.39,27.26A20.39,20.39,0,0,0,145,63.36a39.3,39.3,0,0,0,12.3,5.41q7,1.82,15.39,3.36t17.11,2.32a161.93,161.93,0,0,1,17,2.41Q215,78.5,222,80.47a34.67,34.67,0,0,1,12,5.85,23.32,23.32,0,0,1,7.31,9.2c1.55,3.56,1.81,8.08.78,13.59s-3.5,11.87-7.4,19.09q-9.12,15.48-37.84,21.33-26.31,5.33-49.88-.35-22.19-5.33-25.28-17.2-2.58-9.79,9.46-22-2.76,7.57,12.21,13.93,17,7.23,39.22,6.71,25.46-.53,32.16-12,4-6.7.17-16.34a18,18,0,0,0-8.86-8.77,45.45,45.45,0,0,0-14.7-4.13q-8.43-1-17-1.38t-18.06-1.37a69,69,0,0,1-15.65-3.27q-11.52-5-17.63-12.64t-6.45-15.91a37,37,0,0,1,3.52-16.86A49.86,49.86,0,0,1,131.4,22.25a68.4,68.4,0,0,1,18.15-12.13A75.49,75.49,0,0,1,172.16,3.5a141.64,141.64,0,0,1,20.39.09A119.56,119.56,0,0,1,212.5,6.77a47.76,47.76,0,0,1,16,6.79,21.36,21.36,0,0,1,8.43,10.84q2.15,6.45-2.84,15.22a8.7,8.7,0,0,1-1,1.89,1.38,1.38,0,0,1-1,.69,2.67,2.67,0,0,1-1-.17,2.55,2.55,0,0,1-.94-.86c-.35-.46-.63-.86-.86-1.21s-.49-.77-.78-1.29A4.76,4.76,0,0,0,227.89,37.73Z"/><path class="cls-1" d="M390.09,154.52c.91.91.34,1.49-1.72,1.72q-2.42.16-10.15,0-12.23-.53-12.56.86Q361.88,155.38,353,144t-16.77-21.93q-7.92-10.57-10-10.75a86.87,86.87,0,0,1-12.64,1.81,61.6,61.6,0,0,1-10.4,0c-2.76-.28-5.45-.49-8.09-.6s-4.73-.26-6.28-.43a7.27,7.27,0,0,0-4.38.86,6.5,6.5,0,0,0-2.93,3,22.39,22.39,0,0,0-1.29,6.45,72.89,72.89,0,0,0-.08,10.66q.35,6.1,1,15.91c.23,2.18-.12,3.21-1,3.1a28,28,0,0,0-5,.17q-13.24,1-13.24-1.72V150q1.55-15.48,1.8-76.71T262,7.46a92.62,92.62,0,0,1,20.29-.69q12.21.69,26,1.55a104.55,104.55,0,0,1,26.84,5.24,110.05,110.05,0,0,1,23,10.58A36.2,36.2,0,0,1,372.71,41.6q4.65,11.26,1.55,25.88a24.85,24.85,0,0,1-2,8.52,41.15,41.15,0,0,1-4,7.65,61.09,61.09,0,0,1-5.76,7q-3.53,3.8-5.85,5.94t-5.67,5c-2.24,1.89-3.59,3.07-4,3.52q1.38,1.72,5.34,7.14t7.65,10.32q3.69,4.9,8.51,11t8.69,10.49a74.67,74.67,0,0,0,7.4,7.4C386.84,153.51,388.71,154.52,390.09,154.52ZM316.64,94a36.48,36.48,0,0,0,14-3.35,53.1,53.1,0,0,0,12.9-8.09,40.69,40.69,0,0,0,9.37-11.43,32.31,32.31,0,0,0,4.13-13.25q.53-6.7-3.78-13.67t-13.42-12.3q-8.78-5-21.93-7a85.72,85.72,0,0,0-23.65-.78q-10.48,1.29-13.07,5.08,0,5.16-.34,19.43t-.43,22.71q-.09,8.43.6,20.81.85,2.58,15.31,2.67T316.64,94Z"/><path class="cls-2" d="M35.11,204.6q-.18,5,0,10.08.24,6.84,3.42,9.9t8.7,3.06a20.2,20.2,0,0,0,4.41-.45,9.76,9.76,0,0,0,3.54-1.53,9.45,9.45,0,0,0,2.61-2.85,14.7,14.7,0,0,0,1.68-4.47,1.49,1.49,0,0,1,.48-1,1.36,1.36,0,0,1,.84-.27H62a1.39,1.39,0,0,1,.93.33.94.94,0,0,1,.33.87,14.23,14.23,0,0,1-1,4.44,12,12,0,0,1-2.82,4.17A15.05,15.05,0,0,1,54.49,230a19.13,19.13,0,0,1-7.26,1.23,18.14,18.14,0,0,1-7-1.23,13.49,13.49,0,0,1-4.89-3.39,14,14,0,0,1-2.91-5.13A23.71,23.71,0,0,1,31.33,215q-.12-2.46-.12-5.28t.12-5.4a23.88,23.88,0,0,1,1.08-6.48,13.92,13.92,0,0,1,2.91-5.16,13.49,13.49,0,0,1,4.89-3.39,18.14,18.14,0,0,1,7-1.23,19.13,19.13,0,0,1,7.26,1.23,15.05,15.05,0,0,1,4.92,3.12,12,12,0,0,1,2.82,4.17,14.23,14.23,0,0,1,1,4.44.94.94,0,0,1-.33.87,1.39,1.39,0,0,1-.93.33h-1.2a1.36,1.36,0,0,1-.84-.27,1.49,1.49,0,0,1-.48-1,14.7,14.7,0,0,0-1.68-4.47,9.45,9.45,0,0,0-2.61-2.85,9.76,9.76,0,0,0-3.54-1.53,20.2,20.2,0,0,0-4.41-.45q-5.52,0-8.7,3.06T35.11,204.6Z"/><path class="cls-2" d="M86.28,188a19,19,0,0,1,6.37,1,13,13,0,0,1,4.94,3.09,14.53,14.53,0,0,1,3.25,5.16,22.94,22.94,0,0,1,1.29,7.29c.07,1.8.11,3.48.11,5s0,3.24-.11,5q-.25,8.52-4.33,12.54t-11.52,4q-7.5,0-11.54-4t-4.3-12.54q-.12-2.7-.12-5t.12-5a22.13,22.13,0,0,1,1.3-7.29A14.22,14.22,0,0,1,75,192.15a13.14,13.14,0,0,1,4.93-3.09A18.77,18.77,0,0,1,86.28,188Zm0,3.6a14.16,14.16,0,0,0-4.67.75,9.88,9.88,0,0,0-3.79,2.37,11.12,11.12,0,0,0-2.54,4.14,19,19,0,0,0-1.06,6q-.06,1.38-.09,2.52c0,.76,0,1.5,0,2.22s0,1.47,0,2.25.05,1.61.09,2.49a18.87,18.87,0,0,0,1.06,6,11.26,11.26,0,0,0,2.52,4.11,9.52,9.52,0,0,0,3.75,2.37,15.35,15.35,0,0,0,9.48,0,9.66,9.66,0,0,0,3.75-2.37,11.82,11.82,0,0,0,2.52-4.11,19.48,19.48,0,0,0,1-6q.06-1.32.06-2.49v-4.47q0-1.14-.06-2.52a19.61,19.61,0,0,0-1-6,11.42,11.42,0,0,0-2.56-4.14A9.81,9.81,0,0,0,91,192.39,14.19,14.19,0,0,0,86.28,191.64Z"/><path class="cls-2" d="M115.56,196.2v33.12q0,1.32-1.38,1.32H113.1a1.17,1.17,0,0,1-1.32-1.32V190q0-1.38,1.32-1.38h1.26a1.12,1.12,0,0,1,.87.3l.39.42,22.14,33.84V190q0-1.38,1.32-1.38h1.08a1.22,1.22,0,0,1,1.38,1.38v39.24q0,1.38-1.32,1.38H138.9a1.12,1.12,0,0,1-.87-.3l-.39-.42Z"/><path class="cls-2" d="M165.12,188a17.57,17.57,0,0,1,6.18,1,14,14,0,0,1,4.38,2.52,10.76,10.76,0,0,1,2.64,3.39,9,9,0,0,1,1,3.6,1.27,1.27,0,0,1-.3.84,1.18,1.18,0,0,1-1,.36h-1.2a1.69,1.69,0,0,1-.75-.24,1.23,1.23,0,0,1-.57-1,6.9,6.9,0,0,0-3.15-4.95,12.35,12.35,0,0,0-7.23-2,18.53,18.53,0,0,0-4.08.42,9.18,9.18,0,0,0-3.18,1.32,6.25,6.25,0,0,0-2.82,5.46,6.29,6.29,0,0,0,.69,3.06,6.73,6.73,0,0,0,2.19,2.28,19.47,19.47,0,0,0,3.78,1.92q2.28.9,5.52,1.92t5.85,2.13a17.47,17.47,0,0,1,4.14,2.37,8.51,8.51,0,0,1,2.46,3.06,11,11,0,0,1-3.21,12.66q-4,3-11,3a20.68,20.68,0,0,1-6.48-.93,16,16,0,0,1-4.77-2.43,10.84,10.84,0,0,1-3-3.45,8.89,8.89,0,0,1-1.11-4,1.15,1.15,0,0,1,.36-.84,1.22,1.22,0,0,1,.9-.36h1.2a1.1,1.1,0,0,1,.9.36,2.08,2.08,0,0,1,.42.84,7.38,7.38,0,0,0,.9,2.55,7.22,7.22,0,0,0,2.13,2.31,12.2,12.2,0,0,0,3.51,1.68,16.93,16.93,0,0,0,5,.66q5.88,0,8.58-2.13a6.92,6.92,0,0,0,2.7-5.73,5.55,5.55,0,0,0-.78-3,7.22,7.22,0,0,0-2.4-2.22,23.16,23.16,0,0,0-4.08-1.89q-2.46-.9-5.82-2a49.47,49.47,0,0,1-5.55-2.07,15.39,15.39,0,0,1-3.84-2.4,8.31,8.31,0,0,1-2.25-3.12,11.21,11.21,0,0,1-.72-4.23,9.79,9.79,0,0,1,3.6-7.68,13,13,0,0,1,4.32-2.28A19.19,19.19,0,0,1,165.12,188Z"/><path class="cls-2" d="M215.88,190a1.22,1.22,0,0,1,1.38-1.38h1.08q1.32,0,1.32,1.38v24.36q0,8.76-4,12.81t-11.4,4.05a20.06,20.06,0,0,1-6.54-1,12,12,0,0,1-4.86-3.06,13.65,13.65,0,0,1-3-5.25,24.21,24.21,0,0,1-1.05-7.56V190q0-1.38,1.32-1.38h1.08a1.22,1.22,0,0,1,1.38,1.38v24.54q0,6.78,3.15,9.93a13.14,13.14,0,0,0,17.07,0q3.12-3.15,3.12-9.93Z"/><path class="cls-2" d="M234.36,227h20.7a1.22,1.22,0,0,1,1.38,1.38v.9q0,1.32-1.38,1.32H231.9a1.17,1.17,0,0,1-1.32-1.32V190a1.17,1.17,0,0,1,1.32-1.32H233a1.17,1.17,0,0,1,1.32,1.32Z"/><path class="cls-2" d="M280.8,188.64a1.22,1.22,0,0,1,1.38,1.38v.9q0,1.32-1.38,1.32H269v37.08q0,1.32-1.38,1.32h-1.08a1.17,1.17,0,0,1-1.32-1.32V192.24H253.32a1.17,1.17,0,0,1-1.32-1.32V190q0-1.38,1.32-1.38Z"/><path class="cls-2" d="M293.22,229.32a1.17,1.17,0,0,1-1.32,1.32h-1.14a1.17,1.17,0,0,1-1.32-1.32V190a1.17,1.17,0,0,1,1.32-1.32h1.14a1.17,1.17,0,0,1,1.32,1.32Z"/><path class="cls-2" d="M308.28,196.2v33.12q0,1.32-1.38,1.32h-1.08a1.17,1.17,0,0,1-1.32-1.32V190q0-1.38,1.32-1.38h1.26a1.12,1.12,0,0,1,.87.3l.39.42,22.14,33.84V190q0-1.38,1.32-1.38h1.08a1.22,1.22,0,0,1,1.38,1.38v39.24q0,1.38-1.32,1.38h-1.32a1.12,1.12,0,0,1-.87-.3l-.39-.42Z"/><path class="cls-2" d="M359.94,191.64a16.23,16.23,0,0,0-4.89.69,9.47,9.47,0,0,0-3.78,2.22,10.74,10.74,0,0,0-2.52,3.93,17.73,17.73,0,0,0-1.05,5.76q-.18,5.4,0,10.8a17.73,17.73,0,0,0,1.05,5.76,10.74,10.74,0,0,0,2.52,3.93,9.47,9.47,0,0,0,3.78,2.22,16.23,16.23,0,0,0,4.89.69,15.65,15.65,0,0,0,4.92-.75,10.54,10.54,0,0,0,3.93-2.28,10.66,10.66,0,0,0,2.61-3.93,15.14,15.14,0,0,0,1-5.64V212H361.92q-1.32,0-1.32-1.38v-.84q0-1.38,1.32-1.38h12.84a1.22,1.22,0,0,1,1.38,1.38V215a19.1,19.1,0,0,1-1.08,6.57,14.45,14.45,0,0,1-3.15,5.13,13.86,13.86,0,0,1-5.1,3.33,19,19,0,0,1-6.87,1.17,18.42,18.42,0,0,1-6.84-1.17,13.81,13.81,0,0,1-5-3.27,14,14,0,0,1-3.06-5,21,21,0,0,1-1.17-6.45q-.12-2.7-.12-5.7t.12-5.7a20.43,20.43,0,0,1,1.2-6.45,14.39,14.39,0,0,1,3.09-5,13.81,13.81,0,0,1,5-3.27,18.24,18.24,0,0,1,6.78-1.17A17.93,17.93,0,0,1,367,189.3a16.42,16.42,0,0,1,4.8,3,12.09,12.09,0,0,1,2.76,3.66,8.92,8.92,0,0,1,1,3.18,1,1,0,0,1-.3.87,1.37,1.37,0,0,1-1,.33H373a1,1,0,0,1-.78-.27,3,3,0,0,1-.48-.93,12.82,12.82,0,0,0-1.35-2.73A9,9,0,0,0,368,194a12.44,12.44,0,0,0-3.42-1.71A14.84,14.84,0,0,0,359.94,191.64Z"/></svg>